<svg xmlns="http://www.w3.org/2000/svg" viewBox="0 0 1024 1024">
  <!-- The shutter mark. Generated by assets/icon-src/build-shutter.py in the app repo —
       regenerate there rather than editing these numbers by hand. -->
  <clipPath id="rim" clipPathUnits="userSpaceOnUse">
    <circle cx="512" cy="512" r="369" />
  </clipPath>
  <path
    clip-path="url(#rim)"
    fill-rule="nonzero"
    fill="#4F7D66"
    d="M 143.00 512.00 A 369.00 369.00 0 1 1 881.00 512.00 A 369.00 369.00 0 1 1 143.00 512.00 Z M 177.00 512.00 A 335.00 335.00 0 1 0 847.00 512.00 A 335.00 335.00 0 1 0 177.00 512.00 Z M 520.50 347.28 L 900.24 566.52 L 883.24 595.96 L 503.50 376.72 Z M 658.90 437.00 L 658.90 875.48 L 624.90 875.48 L 624.90 437.00 Z M 650.40 601.72 L 270.67 820.96 L 253.67 791.52 L 633.40 572.28 Z M 503.50 676.72 L 123.76 457.48 L 140.76 428.04 L 520.50 647.28 Z M 365.10 587.00 L 365.10 148.52 L 399.10 148.52 L 399.10 587.00 Z M 373.60 422.28 L 753.33 203.04 L 770.33 232.48 L 390.60 451.72 Z"
  />
</svg>
